# Blender v2.83.1 OBJ File: ''
# www.blender.org
mtllib boost.mtl
o Cube
v -2.716669 -0.603816 0.169452
v -2.716669 -0.603816 -0.169452
v 2.718719 -0.582104 0.169452
v 2.718719 -0.582104 -0.169452
v -2.716669 -1.439042 0.169452
v -2.716669 -1.439042 -0.169452
v 2.718719 -1.417330 0.169452
v 2.718719 -1.417330 -0.169452
v 0.001025 -0.594363 -0.169452
v 0.001025 0.240863 0.169452
v 0.001025 -0.594363 0.169452
v 0.001025 0.240863 -0.169452
v -2.716669 -1.754546 0.169452
v -2.716669 -1.754546 -0.169452
v 2.718719 -1.732834 0.169452
v 2.718719 -1.732834 -0.169452
v -2.716669 -2.589772 0.169452
v -2.716669 -2.589772 -0.169452
v 2.718719 -2.568060 0.169452
v 2.718719 -2.568060 -0.169452
v 0.001025 -1.745093 -0.169452
v 0.001025 -0.909868 0.169452
v 0.001025 -1.745093 0.169452
v 0.001025 -0.909868 -0.169452
v -2.716669 1.808292 0.169452
v -2.716669 1.808292 -0.169452
v 2.718719 1.830005 0.169452
v 2.718719 1.830005 -0.169452
v -2.716669 0.973066 0.169452
v -2.716669 0.973066 -0.169452
v 2.718719 0.994778 0.169452
v 2.718719 0.994778 -0.169452
v 0.001025 1.817745 -0.169452
v 0.001025 2.652971 0.169452
v 0.001025 1.817745 0.169452
v 0.001025 2.652971 -0.169452
v -2.716669 0.591173 0.169452
v -2.716669 0.591173 -0.169452
v 2.718719 0.612886 0.169452
v 2.718719 0.612886 -0.169452
v -2.716669 -0.244053 0.169452
v -2.716669 -0.244053 -0.169452
v 2.718719 -0.222340 0.169452
v 2.718719 -0.222340 -0.169452
v 0.001025 0.600626 -0.169452
v 0.001025 1.435852 0.169452
v 0.001025 0.600626 0.169452
v 0.001025 1.435852 -0.169452
vt 0.999369 0.498538
vt 0.518939 0.999269
vt 0.770833 0.500731
vt 0.518298 0.897937
vt 0.531017 0.885218
vt 0.531017 0.897937
vt 0.519273 0.106360
vt 0.532495 0.099749
vt 0.532495 0.106360
vt 0.772626 0.500300
vt 0.744832 0.998066
vt 0.518473 0.996476
vt 0.489303 0.588160
vt 0.475700 0.594962
vt 0.475700 0.588160
vt 0.694232 0.564075
vt 0.709808 0.548498
vt 0.709808 0.564075
vt 0.489303 0.581359
vt 0.475700 0.581359
vt 0.749993 0.000816
vt 0.524817 0.002023
vt 0.519273 0.112970
vt 0.532495 0.112970
vt 0.523990 0.002193
vt 0.772394 0.501144
vt 0.749986 0.000526
vt 0.999772 0.497074
vt 0.518298 0.897937
vt 0.531017 0.885218
vt 0.531017 0.897937
vt 0.519273 0.106360
vt 0.532495 0.099749
vt 0.532495 0.106360
vt 0.772096 0.498538
vt 0.743687 0.999269
vt 0.519571 0.997076
vt 0.489303 0.588160
vt 0.475700 0.594962
vt 0.475700 0.588160
vt 0.694232 0.564075
vt 0.709808 0.548498
vt 0.709808 0.564075
vt 0.489303 0.581359
vt 0.475700 0.581359
vt 0.748737 0.000731
vt 0.772246 0.498248
vt 0.522727 0.001462
vt 0.519273 0.112970
vt 0.532495 0.112970
vt 0.745106 0.999640
vt 0.771200 0.501126
vt 0.999636 0.497442
vt 1.001542 0.500104
vt 0.519044 0.999326
vt 0.773088 0.498363
vt 0.518298 0.897937
vt 0.531017 0.885218
vt 0.531017 0.897937
vt 0.519273 0.106360
vt 0.532495 0.099749
vt 0.532495 0.106360
vt 0.770737 0.490087
vt 0.745484 0.995204
vt 0.519474 0.996666
vt 0.489303 0.588160
vt 0.475700 0.594962
vt 0.475700 0.588160
vt 0.694232 0.564075
vt 0.709808 0.548498
vt 0.709808 0.564075
vt 0.489303 0.581359
vt 0.475700 0.581359
vt 0.748010 -0.000410
vt 0.523262 0.002514
vt 0.519273 0.112970
vt 0.532495 0.112970
vt 0.522551 0.000301
vt 0.998737 0.497076
vt 0.520202 1.000000
vt 0.772727 0.498538
vt 0.518298 0.897937
vt 0.531017 0.885218
vt 0.531017 0.897937
vt 0.519273 0.106360
vt 0.532495 0.099749
vt 0.532495 0.106360
vt 0.770536 0.495964
vt 0.743736 0.999492
vt 0.519984 0.998571
vt 0.489303 0.588160
vt 0.475700 0.594962
vt 0.475700 0.588160
vt 0.694232 0.564075
vt 0.709808 0.548498
vt 0.709808 0.564075
vt 0.489303 0.581359
vt 0.475700 0.581359
vt 0.751690 -0.000197
vt 0.523166 -0.000197
vt 0.519273 0.112970
vt 0.532495 0.112970
vt 0.522096 0.000731
vt 0.746212 0.998538
vt 0.518298 0.885218
vt 0.519273 0.099749
vt 0.998844 0.498660
vt 0.489303 0.594962
vt 0.694232 0.548498
vt 0.747475 0.000731
vt 0.523149 -0.000156
vt 0.518298 0.885218
vt 0.519273 0.099749
vt 0.999369 0.498538
vt 0.489303 0.594962
vt 0.694232 0.548498
vt 1.000000 0.498538
vt 0.517466 0.999640
vt 0.745994 0.998166
vt 0.518298 0.885218
vt 0.519273 0.099749
vt 1.000535 0.497397
vt 0.489303 0.594962
vt 0.694232 0.548498
vt 0.745994 0.001461
vt 0.746843 1.000000
vt 0.518298 0.885218
vt 0.519273 0.099749
vt 0.999856 0.496885
vt 0.489303 0.594962
vt 0.694232 0.548498
vt 0.749369 0.000731
vn 0.0000 0.0000 1.0000
vn 1.0000 0.0000 0.0000
vn 0.2968 -0.9549 0.0000
vn 0.0000 0.0000 -1.0000
vn 0.2898 0.9571 0.0000
vn -1.0000 0.0000 0.0000
vn -0.2968 0.9549 0.0000
vn -0.2898 -0.9571 0.0000
usemtl blue
s off
f 11/1/1 3/2/1 10/3/1
f 3/4/2 8/5/2 4/6/2
f 11/7/3 6/8/3 9/9/3
f 9/10/4 4/11/4 8/12/4
f 10/13/5 4/14/5 12/15/5
f 5/16/6 2/17/6 6/18/6
f 1/19/7 12/15/7 2/20/7
f 2/21/4 9/10/4 6/22/4
f 7/23/8 9/9/8 8/24/8
f 1/25/1 11/1/1 10/3/1
f 23/26/1 15/27/1 22/28/1
f 15/29/2 20/30/2 16/31/2
f 23/32/3 18/33/3 21/34/3
f 21/35/4 16/36/4 20/37/4
f 22/38/5 16/39/5 24/40/5
f 17/41/6 14/42/6 18/43/6
f 13/44/7 24/40/7 14/45/7
f 14/46/4 21/47/4 18/48/4
f 19/49/8 21/34/8 20/50/8
f 13/51/1 23/52/1 22/53/1
f 35/54/1 27/55/1 34/56/1
f 27/57/2 32/58/2 28/59/2
f 35/60/3 30/61/3 33/62/3
f 33/63/4 28/64/4 32/65/4
f 34/66/5 28/67/5 36/68/5
f 29/69/6 26/70/6 30/71/6
f 25/72/7 36/68/7 26/73/7
f 26/74/4 33/63/4 30/75/4
f 31/76/8 33/62/8 32/77/8
f 25/78/1 35/54/1 34/56/1
f 47/79/1 39/80/1 46/81/1
f 39/82/2 44/83/2 40/84/2
f 47/85/3 42/86/3 45/87/3
f 45/88/4 40/89/4 44/90/4
f 46/91/5 40/92/5 48/93/5
f 41/94/6 38/95/6 42/96/6
f 37/97/7 48/93/7 38/98/7
f 38/99/4 45/88/4 42/100/4
f 43/101/8 45/87/8 44/102/8
f 37/103/1 47/79/1 46/81/1
f 11/1/1 7/104/1 3/2/1
f 3/4/2 7/105/2 8/5/2
f 11/7/3 5/106/3 6/8/3
f 9/10/4 12/107/4 4/11/4
f 10/13/5 3/108/5 4/14/5
f 5/16/6 1/109/6 2/17/6
f 1/19/7 10/13/7 12/15/7
f 2/21/4 12/107/4 9/10/4
f 7/23/8 11/7/8 9/9/8
f 1/25/1 5/110/1 11/1/1
f 23/26/1 19/111/1 15/27/1
f 15/29/2 19/112/2 20/30/2
f 23/32/3 17/113/3 18/33/3
f 21/35/4 24/114/4 16/36/4
f 22/38/5 15/115/5 16/39/5
f 17/41/6 13/116/6 14/42/6
f 13/44/7 22/38/7 24/40/7
f 14/46/4 24/117/4 21/47/4
f 19/49/8 23/32/8 21/34/8
f 13/51/1 17/118/1 23/52/1
f 35/54/1 31/119/1 27/55/1
f 27/57/2 31/120/2 32/58/2
f 35/60/3 29/121/3 30/61/3
f 33/63/4 36/122/4 28/64/4
f 34/66/5 27/123/5 28/67/5
f 29/69/6 25/124/6 26/70/6
f 25/72/7 34/66/7 36/68/7
f 26/74/4 36/122/4 33/63/4
f 31/76/8 35/60/8 33/62/8
f 25/78/1 29/125/1 35/54/1
f 47/79/1 43/126/1 39/80/1
f 39/82/2 43/127/2 44/83/2
f 47/85/3 41/128/3 42/86/3
f 45/88/4 48/129/4 40/89/4
f 46/91/5 39/130/5 40/92/5
f 41/94/6 37/131/6 38/95/6
f 37/97/7 46/91/7 48/93/7
f 38/99/4 48/129/4 45/88/4
f 43/101/8 47/85/8 45/87/8
f 37/103/1 41/132/1 47/79/1
