# Blender v2.83.1 OBJ File: 'arena.blend'
# www.blender.org
mtllib arena.mtl
o Cube.002_Cube.007
v -15.085138 40.415855 115.994171
v -15.085138 18.789392 115.994171
v -15.085138 40.415855 119.188560
v -15.085138 18.789392 119.188560
v 15.085133 40.415855 115.994171
v 15.085133 18.789394 115.994171
v 15.085133 40.415855 119.188553
v 15.085133 18.789394 119.188553
vt 0.948020 0.025227
vt 0.967391 0.044598
vt 0.948020 0.044597
vt 0.948020 0.025227
vt 0.967391 0.044598
vt 0.948020 0.044597
vt 0.948020 0.025227
vt 0.967391 0.044598
vt 0.948020 0.044597
vt 1.000000 1.000000
vt 0.000000 0.000000
vt 1.000000 0.000000
vt 0.948020 0.025227
vt 0.967391 0.044598
vt 0.967391 0.044598
vt 0.948020 0.044597
vt 0.967391 0.025227
vt 0.967391 0.025227
vt 0.967391 0.025227
vt 0.000000 1.000000
vt 0.967391 0.025227
vt 0.967391 0.025227
vn -1.0000 0.0000 0.0000
vn 0.0000 0.0000 1.0000
vn 1.0000 0.0000 0.0000
vn 0.0000 0.0000 -1.0000
vn 0.0000 1.0000 0.0000
vn 0.0000 -1.0000 0.0000
usemtl Me.001
s off
f 2/1/1 3/2/1 1/3/1
f 4/4/2 7/5/2 3/6/2
f 8/7/3 5/8/3 7/9/3
f 6/10/4 1/11/4 5/12/4
f 7/13/5 1/14/5 3/6/5
f 4/4/6 6/15/6 8/16/6
f 2/1/1 4/17/1 3/2/1
f 4/4/2 8/18/2 7/5/2
f 8/7/3 6/19/3 5/8/3
f 6/10/4 2/20/4 1/11/4
f 7/13/5 5/21/5 1/14/5
f 4/4/6 2/22/6 6/15/6
